# xmcd CD database file
#
# Track frame offsets:
#	150
#	19445
#	37160
#	55652
#	70710
#	92592
#	123662
#	136312
#	159717
#	195437
#	214160
#	233987
#
# Disc length: 3366 seconds
#
# Revision: 11
# Processed by: cddbd v1.5.2PL0 Copyright (c) Steve Scherf et al.
# Submitted via: CDex 2.21
#
DISCID=ab0d240c
DTITLE=Gary Moore - Corridors Of Power
DYEAR=1982
DGENRE=Rock
TTITLE0=Don't Take Me For A Loser
TTITLE1=Always Gonna Love You
TTITLE2=Wishing Well
TTITLE3=Gonna Break My Heart Again
TTITLE4=Falling In Love With You
TTITLE5=End Of The World
TTITLE6=Rockin' Every Night
TTITLE7=Cold Hearted
TTITLE8=I Can't Wait Until Tomorrow
TTITLE9=Falling In Love With You (Remix) (Bonus Track)
TTITLE10=Falling In Love With You (Remix Instrumental) (Bonus Track)
TTITLE11=Love Can Make A Fool Of You (Bonus Track)
EXTD=YEAR: 1982
EXTT0=
EXTT1=
EXTT2=
EXTT3=
EXTT4=
EXTT5=
EXTT6=
EXTT7=
EXTT8=
EXTT9=
EXTT10=
EXTT11=
PLAYORDER=
